<svg width="10" height="10" viewBox="0 0 10 10" fill="none" xmlns="http://www.w3.org/2000/svg">
<path d="M1.46446 1.46446C2.40883 0.520096 3.66447 0 5 0C6.33553 0 7.59117 0.520096 8.53554 1.46446C9.4799 2.40883 10 3.66447 10 5C10 6.3356 9.4799 7.59117 8.53554 8.53554C7.59117 9.4799 6.33553 10 5 10C3.66447 10 2.40883 9.4799 1.46446 8.53554C0.520096 7.59117 0 6.3356 0 5C0 3.66447 0.520096 2.40883 1.46446 1.46446ZM2.83737 6.47202C2.64671 6.66275 2.64671 6.97189 2.83737 7.16255C2.93274 7.25792 3.05771 7.3056 3.18268 7.3056C3.30765 7.3056 3.43262 7.25792 3.52798 7.16255L5 5.69054L6.47202 7.16263C6.56738 7.25792 6.69235 7.3056 6.81732 7.3056C6.94229 7.3056 7.06726 7.25792 7.16263 7.16263C7.35329 6.97189 7.35329 6.66275 7.16263 6.47209L5.69054 5L7.16263 3.52798C7.35329 3.33725 7.35329 3.02811 7.16263 2.83745C6.97189 2.64671 6.66275 2.64671 6.47209 2.83745L5 4.30946L3.52798 2.83745C3.33725 2.64679 3.02811 2.64671 2.83745 2.83745C2.64671 3.02811 2.64671 3.33725 2.83745 3.52798L4.30946 5L2.83737 6.47202Z" fill="white"/>
</svg>
