<svg width="1013" height="761" viewBox="0 0 1013 761" fill="none" xmlns="http://www.w3.org/2000/svg">
<path fill-rule="evenodd" clip-rule="evenodd" d="M558.59 512.876L614.92 480.235L727.472 415.008C768.902 390.997 836.112 390.997 877.543 415.008C895.283 425.299 905.413 438.269 907.985 451.668C930.163 452.687 951.822 458.716 971.336 469.302C1012.77 493.313 1012.77 532.224 971.336 556.182L802.454 654.317L770.939 636.094L614.92 545.516L558.59 512.876ZM1046.32 794.204V549.804L802.186 690.763L558 549.804V794.204L802.132 934.788L1046.21 794.204H1046.32ZM765.847 693.335C769.348 695.882 771.982 699.444 773.391 703.537C774.8 707.631 774.917 712.059 773.726 716.221C773.382 718.017 772.595 719.699 771.437 721.114C770.278 722.529 768.785 723.632 767.093 724.324C765.4 725.016 763.561 725.275 761.744 725.076C759.926 724.878 758.186 724.229 756.682 723.189C753.182 720.642 750.548 717.08 749.139 712.986C747.73 708.893 747.613 704.465 748.804 700.303C749.144 698.498 749.931 696.808 751.092 695.385C752.254 693.963 753.754 692.855 755.455 692.162C757.155 691.469 759.002 691.213 760.827 691.418C762.652 691.623 764.396 692.282 765.901 693.335H765.847ZM729.187 671.629C732.688 674.176 735.322 677.737 736.731 681.831C738.14 685.924 738.257 690.352 737.066 694.514C736.722 696.31 735.935 697.992 734.777 699.407C733.618 700.822 732.125 701.926 730.433 702.618C728.74 703.31 726.901 703.568 725.084 703.37C723.266 703.171 721.526 702.523 720.022 701.482C716.521 698.935 713.888 695.373 712.479 691.28C711.07 687.186 710.953 682.758 712.144 678.596C712.488 676.8 713.275 675.118 714.433 673.704C715.591 672.289 717.084 671.185 718.777 670.493C720.47 669.801 722.308 669.543 724.126 669.741C725.944 669.939 727.684 670.588 729.187 671.629ZM642.039 619.962C640.533 618.884 638.779 618.204 636.94 617.986C635.101 617.767 633.237 618.017 631.52 618.712C629.804 619.408 628.291 620.525 627.122 621.962C625.953 623.398 625.166 625.107 624.835 626.929C623.644 631.091 623.761 635.519 625.17 639.613C626.579 643.706 629.213 647.268 632.714 649.815C634.217 650.855 635.957 651.504 637.775 651.703C639.593 651.901 641.431 651.642 643.124 650.95C644.817 650.258 646.31 649.155 647.468 647.74C648.626 646.325 649.413 644.643 649.757 642.847C650.948 638.685 650.831 634.257 649.422 630.164C648.013 626.07 645.379 622.509 641.879 619.962H642.039ZM606.558 598.898C605.039 597.844 603.279 597.189 601.44 596.996C599.601 596.803 597.742 597.078 596.038 597.794C594.333 598.51 592.836 599.645 591.686 601.093C590.537 602.542 589.771 604.257 589.461 606.08C588.27 610.242 588.387 614.67 589.796 618.764C591.206 622.857 593.839 626.419 597.34 628.966C598.844 630.019 600.589 630.678 602.414 630.883C604.239 631.088 606.086 630.832 607.786 630.139C609.487 629.446 610.987 628.338 612.148 626.916C613.31 625.493 614.097 623.803 614.437 621.998C615.628 617.836 615.511 613.408 614.102 609.315C612.693 605.221 610.059 601.66 606.558 599.113V598.898ZM591.444 776.571L768.313 878.404V748.754L591.444 646.545V776.571ZM802.454 588.983L915.007 523.756C925.351 517.753 925.351 508.052 915.007 502.317C909.197 499.357 902.768 497.814 896.248 497.814C889.727 497.814 883.299 499.357 877.489 502.317L764.936 567.544L802.454 588.983ZM708.713 534.529L821.266 469.302C831.61 463.299 831.61 453.598 821.266 447.863C815.457 444.899 809.029 443.353 802.507 443.353C795.986 443.353 789.557 444.899 783.749 447.863L671.196 513.09L708.713 534.529Z" fill="url(#paint0_angular)"/>
<g filter="url(#filter0_f)">
<ellipse cx="677.359" cy="582.558" rx="526.839" ry="27.769" transform="rotate(-38.9163 677.359 582.558)" fill="#FF6647"/>
</g>
<defs>
<filter id="filter0_f" x="0" y="-20" width="1354.72" height="1205.12" filterUnits="userSpaceOnUse" color-interpolation-filters="sRGB">
<feFlood flood-opacity="0" result="BackgroundImageFix"/>
<feBlend mode="normal" in="SourceGraphic" in2="BackgroundImageFix" result="shape"/>
<feGaussianBlur stdDeviation="125" result="effect1_foregroundBlur"/>
</filter>
<radialGradient id="paint0_angular" cx="0" cy="0" r="1" gradientUnits="userSpaceOnUse" gradientTransform="translate(802.159 665.894) rotate(90) scale(268.894 244.159)">
<stop stop-color="#FF6647"/>
<stop offset="1" stop-color="#652F25" stop-opacity="0.39"/>
</radialGradient>
</defs>
</svg>
