<svg width="9" height="7" viewBox="0 0 9 7" fill="none" xmlns="http://www.w3.org/2000/svg">
<path d="M4.14882 6.00018L0.143779 1.99507C0.0510727 1.90244 -4.03218e-08 1.77878 -3.45584e-08 1.64693C-2.87949e-08 1.51507 0.0510727 1.39142 0.143779 1.29878L0.438655 1.00383C0.6308 0.811909 0.94309 0.811909 1.13494 1.00383L4.49813 4.36703L7.86506 1.0001C7.95776 0.90747 8.08135 0.856324 8.21313 0.856324C8.34505 0.856324 8.46864 0.90747 8.56142 1.0001L8.85622 1.29505C8.94893 1.38776 9 1.51134 9 1.6432C9 1.77505 8.94893 1.89871 8.85622 1.99134L4.84752 6.00018C4.75452 6.09304 4.63035 6.14404 4.49835 6.14374C4.36584 6.14404 4.24175 6.09304 4.14882 6.00018Z" fill="#B3B3B3"/>
</svg>
