<svg width="1355" height="927" viewBox="0 0 1355 927" fill="none" xmlns="http://www.w3.org/2000/svg">
<g filter="url(#filter0_f)">
<ellipse rx="526.839" ry="27.4177" transform="matrix(0.778065 -0.628184 -0.628184 -0.778065 677.138 324.285)" fill="#FF6647"/>
<path d="M1086.66 -6.35309C1086.48 -6.5855 1086.14 -6.76957 1085.57 -6.83789C1085 -6.90652 1084.24 -6.85103 1083.28 -6.65023C1081.35 -6.24897 1078.74 -5.29315 1075.46 -3.78824C1068.91 -0.781895 1059.8 4.36702 1048.4 11.4614C1025.61 25.647 993.751 47.5739 955.106 75.5866C877.818 131.61 773.419 211.955 660.228 303.341C547.038 394.727 446.494 479.847 375.439 543.591C339.911 575.463 311.761 601.986 293.091 621.273C283.754 630.918 276.8 638.742 272.48 644.513C270.318 647.402 268.833 649.754 268.035 651.55C267.636 652.448 267.421 653.181 267.368 653.754C267.314 654.326 267.424 654.69 267.612 654.922C267.8 655.155 268.132 655.339 268.702 655.407C269.274 655.476 270.035 655.42 270.998 655.219C272.921 654.818 275.534 653.862 278.814 652.358C285.366 649.351 294.479 644.202 305.876 637.108C328.664 622.922 360.524 600.995 399.169 572.983C476.457 516.959 580.857 436.615 694.047 345.228C807.237 253.842 907.781 168.722 978.836 104.979C1014.36 73.1058 1042.51 46.5832 1061.18 27.2966C1070.52 17.651 1077.48 9.82766 1081.79 4.0563C1083.96 1.16729 1085.44 -1.18482 1086.24 -2.98037C1086.64 -3.87904 1086.85 -4.61139 1086.91 -5.18521C1086.96 -5.75688 1086.85 -6.12068 1086.66 -6.35309Z" stroke="black"/>
</g>
<defs>
<filter id="filter0_f" x="0" y="-278" width="1354.28" height="1204.57" filterUnits="userSpaceOnUse" color-interpolation-filters="sRGB">
<feFlood flood-opacity="0" result="BackgroundImageFix"/>
<feBlend mode="normal" in="SourceGraphic" in2="BackgroundImageFix" result="shape"/>
<feGaussianBlur stdDeviation="125" result="effect1_foregroundBlur"/>
</filter>
</defs>
</svg>
