<svg width="18" height="18" viewBox="0 0 18 18" fill="none" xmlns="http://www.w3.org/2000/svg">
<path d="M2.63603 2.63603C4.33589 0.936172 6.59605 0 9 0C11.4039 0 13.6641 0.936172 15.364 2.63603C17.0638 4.33589 18 6.59605 18 9C18 11.4041 17.0638 13.6641 15.364 15.364C13.6641 17.0638 11.4039 18 9 18C6.59605 18 4.33589 17.0638 2.63603 15.364C0.936172 13.6641 0 11.4041 0 9C0 6.59605 0.936172 4.33589 2.63603 2.63603ZM5.10727 11.6496C4.76408 11.993 4.76408 12.5494 5.10727 12.8926C5.27893 13.0643 5.50388 13.1501 5.72882 13.1501C5.95377 13.1501 6.17871 13.0643 6.35037 12.8926L9 10.243L11.6496 12.8927C11.8213 13.0643 12.0462 13.1501 12.2712 13.1501C12.4961 13.1501 12.7211 13.0643 12.8927 12.8927C13.2359 12.5494 13.2359 11.993 12.8927 11.6498L10.243 9L12.8927 6.35037C13.2359 6.00705 13.2359 5.45059 12.8927 5.10741C12.5494 4.76408 11.993 4.76408 11.6498 5.10741L9 7.75703L6.35037 5.10741C6.00705 4.76422 5.45059 4.76408 5.10741 5.10741C4.76408 5.45059 4.76408 6.00705 5.10741 6.35037L7.75703 9L5.10727 11.6496Z" fill="white" fill-opacity="0.34"/>
</svg>
